<svg xmlns="http://www.w3.org/2000/svg" xmlns:xlink="http://www.w3.org/1999/xlink" width="466.56" height="238.72" viewBox="0 0 349.92 179.04"><defs><symbol overflow="visible" id="e"><path d="M4.531-7.297c-.18-.176-.43-.273-.75-.297-.574 0-1.047.242-1.422.719-.386.531-.578 1.352-.578 2.453l.016.047.094-.156c.332-.477.78-.719 1.343-.719.375 0 .704.074.985.219.195.117.39.281.578.5.195.21.36.437.484.687.164.399.25.828.25 1.297v.219c0 .187-.023.36-.062.515-.094.481-.344.93-.75 1.344-.344.367-.73.594-1.157.688a2.735 2.735 0 0 1-.906.016C2.063.116 1.582-.204 1.22-.736.75-1.491.516-2.514.516-3.796c0-.875.148-1.64.453-2.297.312-.656.742-1.164 1.297-1.531.425-.3.894-.453 1.406-.453.469 0 .848.125 1.14.375.29.25.438.594.438 1.031 0 .2-.063.36-.188.484-.117.118-.273.172-.468.172a.7.7 0 0 1-.469-.156c-.117-.113-.172-.273-.172-.484 0-.364.192-.578.578-.64zM4-4.375c-.23-.29-.523-.438-.875-.438-.305 0-.547.09-.734.266-.399.399-.594 1.04-.594 1.922 0 .719.047 1.219.14 1.5.083.242.22.45.407.625.195.168.43.25.703.25.414 0 .734-.156.953-.469.113-.164.188-.363.219-.594.039-.238.062-.582.062-1.03v-.391c0-.457-.023-.801-.062-1.032A1.4 1.4 0 0 0 4-4.375zm0 0"/></symbol><symbol overflow="visible" id="f"><path d="M2.094-4.063a3.697 3.697 0 0 1-.922-.812C.953-5.165.844-5.539.844-6c0-.344.066-.633.203-.875.176-.363.437-.656.781-.875a2.16 2.16 0 0 1 1.188-.328c.55 0 1.023.148 1.421.437.407.282.66.649.766 1.094v.297c0 .18-.008.297-.016.36-.125.53-.496.995-1.109 1.39l-.14.094c.445.304.68.465.703.484.601.492.906 1.094.906 1.813 0 .656-.242 1.218-.719 1.687-.48.457-1.086.688-1.812.688-.993 0-1.72-.364-2.188-1.094-.21-.29-.312-.64-.312-1.047 0-.883.523-1.613 1.578-2.188zM4.5-6.233c0-.344-.117-.633-.344-.875a1.416 1.416 0 0 0-.812-.47 3.835 3.835 0 0 0-.406-.015c-.43 0-.79.149-1.079.438a.87.87 0 0 0-.312.672c0 .343.144.62.437.828.04.043.301.215.782.515l.703.454c.008-.008.062-.04.156-.094a.848.848 0 0 0 .219-.172c.437-.344.656-.77.656-1.281zM1.297-1.906c0 .48.172.875.516 1.187A1.78 1.78 0 0 0 3.03-.25c.332 0 .633-.066.906-.203.27-.145.473-.328.61-.547a1.13 1.13 0 0 0 .219-.656c0-.352-.149-.66-.438-.922-.062-.07-.398-.305-1-.703-.117-.07-.242-.149-.375-.235a3.423 3.423 0 0 1-.312-.203l-.094-.062-.14.078c-.512.336-.852.742-1.016 1.219-.063.21-.094.402-.094.578zm0 0"/></symbol><symbol overflow="visible" id="g"><path d="M.953-.734c0-.207.067-.38.203-.516a.7.7 0 0 1 .516-.203c.207 0 .383.074.531.219a.666.666 0 0 1 .219.5.722.722 0 0 1-.735.734.723.723 0 0 1-.734-.734zm0 0"/></symbol><symbol overflow="visible" id="h"><path d="M1.328-5.203a.679.679 0 0 1-.531-.219.808.808 0 0 1-.188-.547c0-.57.22-1.066.657-1.484a2.263 2.263 0 0 1 1.593-.625c.688 0 1.258.187 1.72.562.456.375.737.868.843 1.47.02.148.031.28.031.405 0 .47-.14.907-.422 1.313-.23.344-.687.812-1.375 1.406-.293.25-.699.621-1.219 1.11l-.718.687.922.016c1.27 0 1.945-.02 2.03-.063.032-.008.071-.098.126-.266.031-.082.086-.359.172-.828v-.03h.484v.03L5.11-.03V0H.61v-.234c0-.157.004-.25.016-.282.008 0 .352-.379 1.031-1.14.875-.977 1.438-1.63 1.688-1.953.55-.727.828-1.407.828-2.032 0-.53-.14-.972-.422-1.328-.281-.363-.672-.547-1.172-.547-.469 0-.851.211-1.14.625-.024.043-.047.09-.079.141a.236.236 0 0 0-.03.078h.062c.195 0 .359.074.484.219.125.148.188.32.188.516 0 .199-.07.37-.204.515a.684.684 0 0 1-.53.219zm0 0"/></symbol><symbol overflow="visible" id="i"><path d="M7.047-7.656c-.438.21-.906.312-1.406.312a3.837 3.837 0 0 1-1.61-.36.292.292 0 0 1-.078-.046l-.062-.016-.016-.015.031.11c.082.273.125.609.125 1.015 0 .718-.156 1.308-.468 1.765-.305.45-.672.672-1.11.672-.25 0-.515-.086-.797-.265-.648-.438-.968-1.16-.968-2.172 0-.633.144-1.176.437-1.625.3-.457.676-.723 1.125-.797.094-.02.16-.031.203-.031.313 0 .594.125.844.375.582.511 1.219.82 1.906.921.05.012.192.016.422.016.238 0 .383-.004.438-.016A2.72 2.72 0 0 0 7.89-8.89c.02-.007.035-.03.046-.062.02-.04.036-.063.047-.063l.032-.03c.007-.02.02-.032.03-.032a.164.164 0 0 1 .063-.016c.02-.008.04-.015.063-.015a.2.2 0 0 1 .172.093c.05.055.07.121.062.204C4.238-2.551 2.125.594 2.062.624a.157.157 0 0 1-.124.063.242.242 0 0 1-.172-.079.233.233 0 0 1-.079-.171c0-.032.008-.07.032-.11.008-.023.906-1.36 2.687-4.016a390.566 390.566 0 0 1 1.969-2.937c.457-.688.68-1.031.672-1.031zm-4.078-.75a.72.72 0 0 0-.547-.235c-.156 0-.305.079-.438.235a1.39 1.39 0 0 0-.312.656c-.043.25-.063.617-.063 1.094 0 .48.024.855.079 1.125.05.261.156.476.312.64.145.149.3.22.469.22h.047c.156 0 .304-.079.453-.235.383-.375.578-.957.578-1.75 0-.79-.195-1.375-.578-1.75zm3.094 6.64c0-.644.148-1.191.453-1.64.3-.446.675-.707 1.125-.781.093-.02.164-.032.218-.032.407 0 .77.227 1.094.672.313.469.469 1.063.469 1.781 0 .72-.156 1.309-.469 1.766-.305.457-.672.688-1.11.688-.25 0-.515-.094-.796-.282-.656-.437-.984-1.16-.984-2.172zm2.296-1.75a.72.72 0 0 0-.546-.234c-.157 0-.305.078-.438.234a1.25 1.25 0 0 0-.313.625C7.02-2.66 7-2.285 7-1.766c0 .543.02.907.063 1.094.093.45.289.735.593.86.04.019.11.03.203.03h.047c.157 0 .305-.077.453-.234.383-.375.579-.957.579-1.75 0-.789-.196-1.375-.579-1.75zm0 0"/></symbol><symbol overflow="visible" id="j"><path d="M4.64-4.063a.34.34 0 0 1 .22.079.213.213 0 0 1 .093.187l-.719 3v.156c0 .262.086.391.266.391.05 0 .113-.023.188-.078.125-.125.25-.426.375-.906.039-.125.07-.192.093-.204h.251c.019 0 .034.012.046.032a.084.084 0 0 1 .016.047c0 .023-.008.07-.016.14-.148.532-.32.899-.516 1.094a1.054 1.054 0 0 1-.296.203 1.65 1.65 0 0 1-.235.016c-.398 0-.672-.157-.828-.469a.469.469 0 0 1-.047-.11c0-.007-.031.016-.094.079-.343.344-.714.515-1.109.515-.336 0-.633-.074-.89-.218-.063.27-.137.57-.22.906-.136.52-.218.82-.25.906a.653.653 0 0 1-.093.203.531.531 0 0 1-.328.125.393.393 0 0 1-.235-.078.257.257 0 0 1-.093-.203c0-.063.226-1.012.687-2.844.469-1.832.707-2.77.719-2.812.082-.176.227-.266.438-.266a.441.441 0 0 1 .218.094.213.213 0 0 1 .094.187c0 .075-.102.496-.297 1.266-.2.762-.305 1.188-.312 1.281a2.333 2.333 0 0 0-.016.328c0 .512.207.766.625.766.102 0 .21-.016.328-.047.29-.113.547-.336.766-.672l.047-.062.328-1.36c.226-.894.36-1.367.39-1.421.07-.165.207-.25.407-.25zm0 0"/></symbol><symbol overflow="visible" id="m"><path d="M1.734.11C1.297.11.945-.032.688-.313.425-.603.296-.962.296-1.391c0-.332.078-.675.234-1.03a3.22 3.22 0 0 1 .64-.923c.27-.27.571-.469.907-.594.145-.062.313-.101.5-.124h2.625c.125.074.188.167.188.28 0 .2-.094.329-.282.391-.043.012-.246.016-.609.016h-.578l.047.094c.113.242.172.508.172.797 0 .71-.266 1.328-.797 1.859a2.458 2.458 0 0 1-1.219.688 1.917 1.917 0 0 1-.39.046zm1.672-2.735c0-.5-.265-.75-.797-.75-.386 0-.71.137-.968.406-.243.262-.43.688-.563 1.281A2.718 2.718 0 0 0 1-1.109c0 .273.066.484.203.64.133.149.328.219.578.219.332 0 .64-.145.922-.438.258-.269.457-.687.594-1.25.07-.289.11-.519.11-.687zm0 0"/></symbol><symbol overflow="visible" id="k"><path d="M.922-2.172C.836-2.21.797-2.273.797-2.359c0-.082.039-.145.125-.188h5.484c.094.055.14.117.14.188 0 .074-.046.136-.14.187zm0 0"/></symbol><symbol overflow="visible" id="l"><path d="M1.203-4.375c-.18 0-.312-.05-.406-.156a.578.578 0 0 1-.14-.407c0-.363.14-.664.421-.906.281-.238.61-.383.984-.437h.141c.219 0 .352.008.406.015.207.032.422.102.641.204.414.21.676.5.781.875a.93.93 0 0 1 .032.265c0 .367-.118.7-.344 1a1.9 1.9 0 0 1-.875.625c-.031.012-.031.016 0 .016.02.011.05.023.094.031.382.105.707.309.968.61.27.292.406.62.406.984 0 .261-.058.511-.171.75a1.88 1.88 0 0 1-.75.797A2.177 2.177 0 0 1 2.25.203c-.418 0-.79-.09-1.11-.266C.817-.237.599-.472.485-.765a1.056 1.056 0 0 1-.093-.453c0-.176.054-.32.171-.437a.614.614 0 0 1 .422-.172.587.587 0 0 1 .61.594.648.648 0 0 1-.125.39.582.582 0 0 1-.328.203l-.063.016c.332.281.723.422 1.172.422.344 0 .602-.164.781-.5.102-.207.156-.524.156-.953v-.188c0-.593-.203-.988-.609-1.187-.094-.04-.281-.067-.562-.078h-.407l-.03-.032c-.013-.007-.016-.054-.016-.14 0-.07.007-.117.03-.14.02-.02.036-.032.048-.032.175 0 .359-.016.546-.047.282-.04.489-.195.626-.469.144-.27.218-.597.218-.984 0-.406-.11-.68-.328-.828a.787.787 0 0 0-.437-.125c-.313 0-.59.086-.829.25a.262.262 0 0 0-.093.062.296.296 0 0 0-.063.078l-.031.047c.02 0 .04.008.063.016a.433.433 0 0 1 .312.187.574.574 0 0 1 .125.36.513.513 0 0 1-.156.375.527.527 0 0 1-.39.156zm0 0"/></symbol><symbol overflow="visible" id="n"><path d="M1.031-4.047a.51.51 0 0 1-.406-.172.594.594 0 0 1-.156-.422c0-.445.172-.832.515-1.156.344-.32.754-.484 1.235-.484.539 0 .988.148 1.344.437.351.293.57.672.656 1.14.008.118.015.22.015.313 0 .368-.109.711-.328 1.032-.18.261-.531.62-1.062 1.078-.23.199-.547.492-.953.875l-.547.531h.718c.989 0 1.516-.016 1.579-.047.02 0 .05-.062.093-.187.02-.07.063-.286.125-.641v-.031h.375v.031L3.97-.031V0h-3.5v-.172c0-.133.004-.207.015-.219.008-.007.274-.312.797-.906a52.339 52.339 0 0 0 1.328-1.5c.414-.57.625-1.098.625-1.578 0-.414-.109-.766-.328-1.047-.219-.281-.523-.422-.906-.422-.367 0-.664.168-.89.5l-.048.094c-.023.031-.03.055-.03.063h.046c.156 0 .281.058.375.171a.6.6 0 0 1 .156.407.594.594 0 0 1-.156.406.569.569 0 0 1-.422.156zm0 0"/></symbol><symbol overflow="visible" id="o"><path d="M.656-2.172C.57-2.21.531-2.273.531-2.359c0-.082.04-.145.125-.188h2.828v-2.828c.07-.082.133-.125.188-.125.082 0 .144.047.187.14v2.813h2.813c.094.055.14.117.14.188 0 .074-.046.136-.14.187H3.859V.641c-.043.093-.105.14-.187.14-.086 0-.149-.047-.188-.14v-2.813zm0 0"/></symbol><symbol overflow="visible" id="p"><path d="M2.328-1.297a.76.76 0 0 1-.14.469.597.597 0 0 1-.36.234l-.062.016c0 .012.03.039.093.078a.289.289 0 0 0 .157.063c.195.093.453.14.765.14.164 0 .281-.008.344-.031.438-.102.8-.379 1.094-.828.351-.508.531-1.383.531-2.625v-.094l-.078.11c-.367.617-.883.921-1.547.921-.719 0-1.328-.312-1.828-.937a3.351 3.351 0 0 1-.563-.938c-.117-.3-.171-.687-.171-1.156 0-.52.066-.945.203-1.281.144-.332.39-.672.734-1.016a2.658 2.658 0 0 1 1.672-.797l.031-.015h.078c.008 0 .035.007.078.015h.11c.187 0 .316.012.39.031.727.157 1.297.622 1.704 1.391.394.781.593 1.797.593 3.047 0 1.262-.273 2.324-.812 3.188a3.582 3.582 0 0 1-1.14 1.187c-.45.281-.915.422-1.391.422-.575 0-1.032-.133-1.376-.39C1.095-.364.922-.75.922-1.25c0-.508.234-.766.703-.766.207 0 .375.07.5.204a.676.676 0 0 1 .203.515zm1.36-7.11a4.146 4.146 0 0 0-.376-.015c-.335 0-.624.121-.874.36a1.5 1.5 0 0 0-.376.718c-.054.274-.078.735-.078 1.39 0 .618.02 1.106.063 1.47.039.336.172.609.39.828.227.21.516.312.86.312h.047c.488-.039.844-.289 1.062-.75.219-.468.328-1.035.328-1.703 0-.695-.039-1.203-.109-1.516A1.36 1.36 0 0 0 4.297-8a1.248 1.248 0 0 0-.61-.406zm0 0"/></symbol><symbol overflow="visible" id="q"><path d="M1.438-2.89a.72.72 0 0 1 .546.234.72.72 0 0 1 .235.547c0 .21-.078.386-.235.53a.73.73 0 0 1-.515.22h-.094l.047.062c.133.293.336.531.61.719.28.187.609.281.984.281.644 0 1.101-.27 1.375-.812.175-.332.265-.907.265-1.72 0-.925-.125-1.55-.375-1.874-.23-.3-.515-.453-.86-.453-.698 0-1.23.308-1.593.922a.312.312 0 0 1-.094.125.761.761 0 0 1-.203.015c-.148 0-.23-.031-.25-.093-.023-.032-.031-.817-.031-2.36 0-.258-.008-.57-.016-.937v-.72c0-.5.032-.75.094-.75a.047.047 0 0 1 .047-.03l.25.078a4.646 4.646 0 0 0 3.625-.016.402.402 0 0 1 .172-.062c.07 0 .11.086.11.25v.171C4.8-7.686 3.878-7.25 2.765-7.25c-.282 0-.532-.023-.75-.078l-.141-.031v2.312c.508-.406 1.035-.61 1.578-.61.164 0 .348.024.547.063.602.157 1.094.5 1.469 1.032.383.523.578 1.14.578 1.859 0 .812-.29 1.515-.86 2.11-.562.593-1.261.89-2.093.89C2.52.297 2.035.14 1.64-.172a1.618 1.618 0 0 1-.438-.453C.93-.945.758-1.348.687-1.828c0-.02-.007-.055-.015-.11v-.14c0-.25.07-.445.219-.594a.745.745 0 0 1 .546-.219zm0 0"/></symbol><symbol overflow="visible" id="r"><path d="M1.047-.813a.79.79 0 0 1 .234-.578.783.783 0 0 1 .578-.234.79.79 0 0 1 .594.25c.156.156.235.34.235.547a.784.784 0 0 1-.25.594.767.767 0 0 1-.563.234.832.832 0 0 1-.594-.234.815.815 0 0 1-.234-.579zm0 0"/></symbol><symbol overflow="visible" id="s"><path d="M6.234 0c-.125-.031-.71-.047-1.75-.047-1.074 0-1.671.016-1.796.047h-.126v-.625h.422c.383-.008.618-.031.704-.063a.286.286 0 0 0 .171-.14c.008-.008.016-.25.016-.719v-.672h-3.5v-.625l2.031-3.11A431.58 431.58 0 0 1 4.5-9.108c.02-.008.113-.016.281-.016h.25l.078.078v6.203h1.235v.625H5.109V-.89a.25.25 0 0 0 .079.157c.07.062.328.101.765.109h.39V0zm-2.28-2.844v-4.5L1-2.859l1.469.015zm0 0"/></symbol><symbol overflow="visible" id="t"><path d="M7.828-8.5a3.634 3.634 0 0 1-1.562.344c-.606 0-1.2-.133-1.782-.406a.264.264 0 0 1-.093-.047l-.063-.016-.031-.016a.752.752 0 0 0 .047.125c.093.305.14.68.14 1.125 0 .793-.18 1.446-.53 1.954-.337.511-.747.765-1.235.765-.274 0-.57-.098-.89-.297C1.108-5.469.75-6.273.75-7.39c0-.707.164-1.312.5-1.812.332-.508.75-.805 1.25-.89.102-.009.176-.016.219-.016.351 0 .672.136.953.406.633.574 1.336.918 2.11 1.031.05.012.206.016.468.016.258 0 .426-.004.5-.016a3.062 3.062 0 0 0 2.016-1.203c.02-.008.039-.031.062-.063a.358.358 0 0 1 .047-.078.188.188 0 0 0 .031-.046c.008-.02.02-.032.031-.032H9a.213.213 0 0 1 .078-.015c.082 0 .149.03.203.093.051.063.07.137.063.22C4.719-2.837 2.367.66 2.297.703a.234.234 0 0 1-.14.046.315.315 0 0 1-.204-.078.254.254 0 0 1-.078-.188c0-.03.016-.074.047-.125 0-.023.988-1.504 2.969-4.453a1388.89 1388.89 0 0 0 2.187-3.265c.508-.758.758-1.141.75-1.141zm-4.531-.844a.828.828 0 0 0-.594-.25c-.187 0-.355.086-.5.25-.18.2-.293.446-.344.735-.054.28-.078.687-.078 1.218 0 .532.024.95.078 1.25.063.293.18.528.36.704.164.167.336.25.515.25h.063c.164 0 .332-.086.5-.266.426-.414.64-1.063.64-1.938 0-.882-.214-1.535-.64-1.953zM6.75-1.969c0-.707.16-1.312.484-1.812.332-.5.75-.79 1.25-.875.102-.008.18-.016.235-.016.457 0 .863.246 1.219.734.351.524.53 1.18.53 1.97 0 .804-.179 1.46-.53 1.968-.336.5-.743.75-1.22.75-.28 0-.577-.102-.89-.297C7.11-.035 6.75-.844 6.75-1.969zm2.547-1.937a.852.852 0 0 0-.61-.266c-.18 0-.343.09-.5.266-.18.21-.292.445-.343.703-.043.25-.063.664-.063 1.234 0 .606.02 1.016.063 1.235.101.492.32.804.656.953.05.02.125.031.219.031h.062c.164 0 .336-.09.516-.266.414-.414.625-1.066.625-1.953 0-.875-.211-1.52-.625-1.937zm0 0"/></symbol><symbol overflow="visible" id="u"><path d="M5.031-8.11c-.199-.195-.48-.304-.843-.328-.625 0-1.153.274-1.579.813-.418.586-.625 1.492-.625 2.719L2-4.86l.11-.172c.363-.54.859-.813 1.484-.813.414 0 .781.09 1.094.266a2.6 2.6 0 0 1 .64.547c.219.242.395.492.531.75.196.449.297.933.297 1.453v.234c0 .211-.027.403-.078.578-.105.532-.383 1.032-.828 1.5-.387.407-.82.66-1.297.766a2.688 2.688 0 0 1-.547.047c-.168 0-.32-.016-.453-.047-.668-.125-1.2-.484-1.594-1.078C.83-1.66.563-2.79.563-4.218c0-.97.171-1.817.515-2.548.344-.726.82-1.296 1.438-1.703a2.62 2.62 0 0 1 1.562-.515c.531 0 .953.14 1.266.421.32.282.484.665.484 1.141 0 .23-.07.414-.203.547-.125.137-.297.203-.516.203-.218 0-.398-.062-.53-.187-.126-.125-.188-.301-.188-.532 0-.406.21-.644.64-.718zm-.593 3.235a1.18 1.18 0 0 0-.97-.484c-.335 0-.605.105-.812.312C2.22-4.597 2-3.883 2-2.907c0 .794.05 1.345.156 1.657.094.273.242.5.453.688.22.187.477.28.782.28.457 0 .804-.171 1.046-.515.133-.187.22-.41.25-.672.04-.258.063-.64.063-1.14v-.422c0-.508-.023-.895-.063-1.156a1.566 1.566 0 0 0-.25-.688zm0 0"/></symbol><clipPath id="a"><path d="M0 0h349.922v178.371H0zm0 0"/></clipPath><clipPath id="b"><path d="M8 153h329.258v2H8zm0 0"/></clipPath><clipPath id="c"><path d="M138.691 122.305H143V127h-4.309zm0 0"/></clipPath><clipPath id="d"><path d="M207.84 122.305H213V127h-5.16zm0 0"/></clipPath></defs><g clip-path="url(#a)" fill="#fff"><path d="M0 0h350v179.871H0zm0 0"/><path d="M0 0h350.75v179.871H0zm0 0"/></g><path d="M0 153.945h10.117l3.375-.004 6.742-.007 3.375-.008 3.371-.008 3.372-.012 3.375-.02 3.37-.027 3.376-.035 3.37-.047 3.372-.062 3.375-.086 3.371-.113 3.375-.149 3.371-.195 3.371-.246 3.375-.32 3.371-.399 3.371-.504 3.375-.625 3.371-.765 3.375-.934 3.372-1.125 3.37-1.344 3.376-1.59 3.37-1.859 3.372-2.156 3.375-2.473 3.37-2.808 3.376-3.149 3.371-3.504 3.371-3.844 3.375-4.171 3.371-4.477 3.375-4.742 3.371-4.961 3.371-5.11 3.375-5.195 3.372-5.195 3.37-5.106 3.376-4.922 3.37-4.636 3.376-4.258 3.37-3.781 3.372-3.223 3.375-2.582 3.371-1.89 3.375-1.141 3.371-.371 3.371.41 3.375 1.183 3.371 1.926 3.371 2.621 3.375 3.254 3.371 3.809 3.375 4.277 3.372 4.656 3.37 4.93 3.376 5.113 3.37 5.2 3.376 5.191 3.37 5.105 3.372 4.95 3.375 4.73 3.371 4.461 3.371 4.156 3.375 3.828 3.371 3.48 3.375 3.134 3.371 2.789 3.371 2.457 3.375 2.14 3.372 1.844 3.375 1.574 3.37 1.332 3.372 1.118 3.375.922 3.37.757 3.372.618 3.375.5 3.371.394 3.375.313 3.371.246 3.371.191 3.375.149 3.371.109 3.371.086 3.375.062 3.371.047 3.376.035 3.37.024 3.372.02 3.375.011 3.37.012 3.376.004 3.37.004" fill="none" stroke-width="1.49894" stroke-linecap="round" stroke-linejoin="round" stroke="#00f"/><path d="M100.902 153.95v-1.5c0-.118.043-.216.125-.298a.41.41 0 0 1 .297-.125c.117 0 .219.043.301.125a.4.4 0 0 1 .121.297v1.5a.4.4 0 0 1-.121.297.413.413 0 0 1-.3.125.41.41 0 0 1-.298-.125.404.404 0 0 1-.125-.297zm0-3v-1.497c0-.117.043-.219.125-.3a.407.407 0 0 1 .297-.122.41.41 0 0 1 .301.121.41.41 0 0 1 .121.301v1.496a.41.41 0 0 1-.121.301.41.41 0 0 1-.3.121.407.407 0 0 1-.298-.121.413.413 0 0 1-.125-.3zm0-2.997v-1.5c0-.117.043-.215.125-.297a.41.41 0 0 1 .297-.125c.117 0 .219.043.301.125a.4.4 0 0 1 .121.297v1.5a.4.4 0 0 1-.121.297.413.413 0 0 1-.3.125.41.41 0 0 1-.298-.125.404.404 0 0 1-.125-.297zm0-3v-1.496c0-.117.043-.219.125-.3a.407.407 0 0 1 .297-.122.41.41 0 0 1 .301.121.41.41 0 0 1 .121.301v1.496a.41.41 0 0 1-.121.3.41.41 0 0 1-.3.122.407.407 0 0 1-.298-.121.413.413 0 0 1-.125-.3zm0-2.996v-1.5c0-.117.043-.215.125-.297a.41.41 0 0 1 .297-.125c.117 0 .219.043.301.125a.4.4 0 0 1 .121.297v1.5a.4.4 0 0 1-.121.297.413.413 0 0 1-.3.125.41.41 0 0 1-.298-.125.404.404 0 0 1-.125-.297zm0-2.996v-1.5a.42.42 0 0 1 .422-.422.416.416 0 0 1 .422.422v1.5c0 .113-.039.215-.121.297a.41.41 0 0 1-.3.12.407.407 0 0 1-.298-.12.41.41 0 0 1-.125-.297zm0-3v-1.5a.41.41 0 0 1 .125-.297.41.41 0 0 1 .297-.125c.117 0 .219.043.301.125a.407.407 0 0 1 .121.297v1.5a.4.4 0 0 1-.121.297.413.413 0 0 1-.3.125.41.41 0 0 1-.298-.125.404.404 0 0 1-.125-.297zm0-2.996v-1.5c0-.117.043-.215.125-.297a.41.41 0 0 1 .297-.125c.117 0 .219.043.301.125a.4.4 0 0 1 .121.297v1.5c0 .113-.039.215-.121.297a.413.413 0 0 1-.3.125.41.41 0 0 1-.298-.125.41.41 0 0 1-.125-.297zm0-3v-1.5a.41.41 0 0 1 .125-.297.407.407 0 0 1 .297-.121.41.41 0 0 1 .301.121.407.407 0 0 1 .121.297v1.5a.4.4 0 0 1-.121.297.398.398 0 0 1-.3.125.396.396 0 0 1-.298-.125.404.404 0 0 1-.125-.297zm0-2.996v-1.5c0-.117.043-.215.125-.297a.41.41 0 0 1 .297-.125c.117 0 .219.043.301.125a.4.4 0 0 1 .121.297v1.5a.4.4 0 0 1-.121.297.413.413 0 0 1-.3.125.41.41 0 0 1-.298-.125.404.404 0 0 1-.125-.297zm0-3v-1.496c0-.118.043-.22.125-.301a.407.407 0 0 1 .297-.121.41.41 0 0 1 .301.12.41.41 0 0 1 .121.302v1.496a.41.41 0 0 1-.121.3.41.41 0 0 1-.3.122.407.407 0 0 1-.298-.121.413.413 0 0 1-.125-.301zm0-2.996v-1.5c0-.118.043-.215.125-.297a.41.41 0 0 1 .297-.125c.117 0 .219.043.301.125a.4.4 0 0 1 .121.297v1.5a.4.4 0 0 1-.121.297.413.413 0 0 1-.3.125.41.41 0 0 1-.298-.125.404.404 0 0 1-.125-.297zm0-3v-1.496c0-.118.043-.22.125-.301a.407.407 0 0 1 .297-.121.41.41 0 0 1 .301.12.41.41 0 0 1 .121.302v1.496a.41.41 0 0 1-.121.3.41.41 0 0 1-.3.122.407.407 0 0 1-.298-.122.413.413 0 0 1-.125-.3zm0-2.996v-1.5c0-.118.043-.215.125-.297a.41.41 0 0 1 .297-.125c.117 0 .219.043.301.125a.4.4 0 0 1 .121.297v1.5a.4.4 0 0 1-.121.296.413.413 0 0 1-.3.125.41.41 0 0 1-.298-.125.404.404 0 0 1-.125-.296zm0-3v-1.497a.42.42 0 0 1 .422-.421.416.416 0 0 1 .422.422v1.496a.41.41 0 0 1-.121.3.41.41 0 0 1-.3.121.407.407 0 0 1-.298-.12.413.413 0 0 1-.125-.301zm0-2.997v-1.5c0-.117.043-.214.125-.296a.41.41 0 0 1 .297-.125c.117 0 .219.043.301.125a.4.4 0 0 1 .121.296v1.5a.4.4 0 0 1-.121.297.413.413 0 0 1-.3.125.41.41 0 0 1-.298-.125.404.404 0 0 1-.125-.297zm0-2.996v-1.5c0-.117.043-.214.125-.296a.396.396 0 0 1 .297-.126c.117 0 .219.04.301.126a.4.4 0 0 1 .121.296v1.5c0 .114-.039.215-.121.297a.41.41 0 0 1-.3.121.407.407 0 0 1-.298-.12.41.41 0 0 1-.125-.298zm0-3v-1.5a.41.41 0 0 1 .125-.296.41.41 0 0 1 .297-.126c.117 0 .219.043.301.126a.407.407 0 0 1 .121.296v1.5a.4.4 0 0 1-.121.297.413.413 0 0 1-.3.125.41.41 0 0 1-.298-.125.404.404 0 0 1-.125-.297zm0-2.996v-1.5c0-.117.043-.215.125-.297a.41.41 0 0 1 .297-.125c.117 0 .219.043.301.125a.4.4 0 0 1 .121.297v1.5c0 .114-.039.215-.121.297a.413.413 0 0 1-.3.125.41.41 0 0 1-.298-.125.41.41 0 0 1-.125-.297zm0-3v-1.5a.41.41 0 0 1 .125-.297.407.407 0 0 1 .297-.12.41.41 0 0 1 .301.12.407.407 0 0 1 .121.297v1.5a.416.416 0 0 1-.422.422.42.42 0 0 1-.422-.422zm0-2.996v-1.5c0-.117.043-.215.125-.297a.41.41 0 0 1 .297-.125c.117 0 .219.043.301.125a.4.4 0 0 1 .121.297v1.5a.4.4 0 0 1-.121.297.413.413 0 0 1-.3.125.41.41 0 0 1-.298-.125.404.404 0 0 1-.125-.297zm0-3v-1.496c0-.117.043-.219.125-.3a.407.407 0 0 1 .297-.122.41.41 0 0 1 .301.121.41.41 0 0 1 .121.301v1.496a.41.41 0 0 1-.121.301.41.41 0 0 1-.3.121.407.407 0 0 1-.298-.121.413.413 0 0 1-.125-.3zm0-2.996v-1.5c0-.117.043-.215.125-.297a.41.41 0 0 1 .297-.125c.117 0 .219.043.301.125a.4.4 0 0 1 .121.297v1.5a.4.4 0 0 1-.121.297.413.413 0 0 1-.3.125.41.41 0 0 1-.298-.125.404.404 0 0 1-.125-.297zm0-3V83.5c0-.117.043-.219.125-.3a.407.407 0 0 1 .297-.122.41.41 0 0 1 .301.121.41.41 0 0 1 .121.301v1.496a.41.41 0 0 1-.121.3.41.41 0 0 1-.3.122.407.407 0 0 1-.298-.121.413.413 0 0 1-.125-.3zm0-2.996v-1.5c0-.117.043-.215.125-.297a.41.41 0 0 1 .297-.125c.117 0 .219.043.301.125a.4.4 0 0 1 .121.297V82a.4.4 0 0 1-.121.297.413.413 0 0 1-.3.125.41.41 0 0 1-.298-.125.404.404 0 0 1-.125-.297zm0-3v-1.496a.42.42 0 0 1 .422-.422.416.416 0 0 1 .422.422V79a.41.41 0 0 1-.121.3.41.41 0 0 1-.3.122.407.407 0 0 1-.298-.121.413.413 0 0 1-.125-.301zm0-2.996v-1.5a.41.41 0 0 1 .125-.297.41.41 0 0 1 .297-.125c.117 0 .219.043.301.125a.407.407 0 0 1 .121.297v1.5a.4.4 0 0 1-.121.297.413.413 0 0 1-.3.125.41.41 0 0 1-.298-.125.404.404 0 0 1-.125-.297zm0-2.996v-1.5c0-.117.043-.215.125-.297a.396.396 0 0 1 .297-.125c.117 0 .219.039.301.125a.4.4 0 0 1 .121.297v1.5c0 .113-.039.215-.121.297a.413.413 0 0 1-.3.125.41.41 0 0 1-.298-.125.41.41 0 0 1-.125-.297zm0-3v-1.5a.41.41 0 0 1 .125-.297.41.41 0 0 1 .297-.125c.117 0 .219.043.301.125a.407.407 0 0 1 .121.297v1.5a.4.4 0 0 1-.121.297.398.398 0 0 1-.3.125.396.396 0 0 1-.298-.125.404.404 0 0 1-.125-.297zm0-2.996v-1.5c0-.117.043-.215.125-.297a.41.41 0 0 1 .297-.125c.117 0 .219.043.301.125a.4.4 0 0 1 .121.297v1.5c0 .113-.039.215-.121.297a.413.413 0 0 1-.3.125.41.41 0 0 1-.298-.125.41.41 0 0 1-.125-.297zm0-3v-1.496c0-.118.043-.22.125-.301a.407.407 0 0 1 .297-.121.41.41 0 0 1 .301.12.41.41 0 0 1 .121.302v1.496a.416.416 0 0 1-.422.422.42.42 0 0 1-.422-.422zm0 0M248.824 153.95v-1.5c0-.118.043-.216.125-.298a.404.404 0 0 1 .297-.125c.117 0 .215.043.297.125.082.082.125.18.125.297v1.5a.404.404 0 0 1-.125.297.404.404 0 0 1-.297.125.404.404 0 0 1-.297-.125.404.404 0 0 1-.125-.297zm0-3v-1.497c0-.117.043-.219.125-.3a.4.4 0 0 1 .297-.122.4.4 0 0 1 .297.121.413.413 0 0 1 .125.301v1.496a.413.413 0 0 1-.125.301.4.4 0 0 1-.297.121.4.4 0 0 1-.297-.121.413.413 0 0 1-.125-.3zm0-2.997v-1.5c0-.117.043-.215.125-.297a.404.404 0 0 1 .297-.125c.117 0 .215.043.297.125.082.082.125.18.125.297v1.5a.404.404 0 0 1-.125.297.404.404 0 0 1-.297.125.404.404 0 0 1-.297-.125.404.404 0 0 1-.125-.297zm0-3v-1.496c0-.117.043-.219.125-.3a.4.4 0 0 1 .297-.122.4.4 0 0 1 .297.121.413.413 0 0 1 .125.301v1.496a.413.413 0 0 1-.125.3.4.4 0 0 1-.297.122.4.4 0 0 1-.297-.121.413.413 0 0 1-.125-.3zm0-2.996v-1.5c0-.117.043-.215.125-.297a.404.404 0 0 1 .297-.125c.117 0 .215.043.297.125.082.082.125.18.125.297v1.5a.404.404 0 0 1-.125.297.404.404 0 0 1-.297.125.404.404 0 0 1-.297-.125.404.404 0 0 1-.125-.297zm0-2.996v-1.5a.42.42 0 0 1 .422-.422.42.42 0 0 1 .422.422v1.5a.41.41 0 0 1-.125.297.4.4 0 0 1-.297.12.4.4 0 0 1-.297-.12.41.41 0 0 1-.125-.297zm0-3v-1.5a.41.41 0 0 1 .125-.297.404.404 0 0 1 .297-.125c.117 0 .215.043.297.125a.41.41 0 0 1 .125.297v1.5a.404.404 0 0 1-.125.297.404.404 0 0 1-.297.125.404.404 0 0 1-.297-.125.404.404 0 0 1-.125-.297zm0-2.996v-1.5c0-.117.043-.215.125-.297a.404.404 0 0 1 .297-.125c.117 0 .215.043.297.125.082.082.125.18.125.297v1.5a.41.41 0 0 1-.125.297.404.404 0 0 1-.297.125.404.404 0 0 1-.297-.125.41.41 0 0 1-.125-.297zm0-3v-1.5a.41.41 0 0 1 .125-.297.4.4 0 0 1 .297-.121.4.4 0 0 1 .297.121.41.41 0 0 1 .125.297v1.5a.404.404 0 0 1-.125.297.39.39 0 0 1-.297.125.39.39 0 0 1-.297-.125.404.404 0 0 1-.125-.297zm0-2.996v-1.5c0-.117.043-.215.125-.297a.404.404 0 0 1 .297-.125c.117 0 .215.043.297.125.082.082.125.18.125.297v1.5a.404.404 0 0 1-.125.297.404.404 0 0 1-.297.125.404.404 0 0 1-.297-.125.404.404 0 0 1-.125-.297zm0-3v-1.496c0-.118.043-.22.125-.301a.4.4 0 0 1 .297-.121.4.4 0 0 1 .297.12.413.413 0 0 1 .125.302v1.496a.413.413 0 0 1-.125.3.4.4 0 0 1-.297.122.4.4 0 0 1-.297-.121.413.413 0 0 1-.125-.301zm0-2.996v-1.5c0-.118.043-.215.125-.297a.404.404 0 0 1 .297-.125c.117 0 .215.043.297.125.082.082.125.18.125.297v1.5a.404.404 0 0 1-.125.297.404.404 0 0 1-.297.125.404.404 0 0 1-.297-.125.404.404 0 0 1-.125-.297zm0-3v-1.496c0-.118.043-.22.125-.301a.4.4 0 0 1 .297-.121.4.4 0 0 1 .297.12.413.413 0 0 1 .125.302v1.496a.413.413 0 0 1-.125.3.4.4 0 0 1-.297.122.4.4 0 0 1-.297-.122.413.413 0 0 1-.125-.3zm0-2.996v-1.5c0-.118.043-.215.125-.297a.404.404 0 0 1 .297-.125c.117 0 .215.043.297.125.082.082.125.18.125.297v1.5a.404.404 0 0 1-.125.296.404.404 0 0 1-.297.125.404.404 0 0 1-.297-.125.404.404 0 0 1-.125-.296zm0-3v-1.497a.42.42 0 0 1 .422-.421.42.42 0 0 1 .422.422v1.496a.413.413 0 0 1-.125.3.4.4 0 0 1-.297.121.4.4 0 0 1-.297-.12.413.413 0 0 1-.125-.301zm0-2.997v-1.5c0-.117.043-.214.125-.296a.404.404 0 0 1 .297-.125c.117 0 .215.043.297.125.082.082.125.18.125.296v1.5a.404.404 0 0 1-.125.297.404.404 0 0 1-.297.125.404.404 0 0 1-.297-.125.404.404 0 0 1-.125-.297zm0-2.996v-1.5c0-.117.043-.214.125-.296a.39.39 0 0 1 .297-.126.39.39 0 0 1 .297.126c.082.082.125.18.125.296v1.5a.41.41 0 0 1-.125.297.4.4 0 0 1-.297.121.4.4 0 0 1-.297-.12.41.41 0 0 1-.125-.298zm0-3v-1.5a.41.41 0 0 1 .125-.296.404.404 0 0 1 .297-.126c.117 0 .215.043.297.126a.41.41 0 0 1 .125.296v1.5a.404.404 0 0 1-.125.297.404.404 0 0 1-.297.125.404.404 0 0 1-.297-.125.404.404 0 0 1-.125-.297zm0-2.996v-1.5c0-.117.043-.215.125-.297a.404.404 0 0 1 .297-.125c.117 0 .215.043.297.125.082.082.125.18.125.297v1.5a.41.41 0 0 1-.125.297.404.404 0 0 1-.297.125.404.404 0 0 1-.297-.125.41.41 0 0 1-.125-.297zm0-3v-1.5a.41.41 0 0 1 .125-.297.4.4 0 0 1 .297-.12.4.4 0 0 1 .297.12.41.41 0 0 1 .125.297v1.5a.42.42 0 0 1-.422.422.42.42 0 0 1-.422-.422zm0-2.996v-1.5c0-.117.043-.215.125-.297a.404.404 0 0 1 .297-.125c.117 0 .215.043.297.125.082.082.125.18.125.297v1.5a.404.404 0 0 1-.125.297.404.404 0 0 1-.297.125.404.404 0 0 1-.297-.125.404.404 0 0 1-.125-.297zm0-3v-1.496c0-.117.043-.219.125-.3a.4.4 0 0 1 .297-.122.4.4 0 0 1 .297.121.413.413 0 0 1 .125.301v1.496a.413.413 0 0 1-.125.301.4.4 0 0 1-.297.121.4.4 0 0 1-.297-.121.413.413 0 0 1-.125-.3zm0-2.996v-1.5c0-.117.043-.215.125-.297a.404.404 0 0 1 .297-.125c.117 0 .215.043.297.125.082.082.125.18.125.297v1.5a.404.404 0 0 1-.125.297.404.404 0 0 1-.297.125.404.404 0 0 1-.297-.125.404.404 0 0 1-.125-.297zm0-3V83.5c0-.117.043-.219.125-.3a.4.4 0 0 1 .297-.122.4.4 0 0 1 .297.121.413.413 0 0 1 .125.301v1.496a.413.413 0 0 1-.125.3.4.4 0 0 1-.297.122.4.4 0 0 1-.297-.121.413.413 0 0 1-.125-.3zm0-2.996v-1.5c0-.117.043-.215.125-.297a.404.404 0 0 1 .297-.125c.117 0 .215.043.297.125.082.082.125.18.125.297V82a.404.404 0 0 1-.125.297.404.404 0 0 1-.297.125.404.404 0 0 1-.297-.125.404.404 0 0 1-.125-.297zm0-3v-1.496a.42.42 0 0 1 .422-.422.42.42 0 0 1 .422.422V79a.413.413 0 0 1-.125.3.4.4 0 0 1-.297.122.4.4 0 0 1-.297-.121.413.413 0 0 1-.125-.301zm0-2.996v-1.5a.41.41 0 0 1 .125-.297.404.404 0 0 1 .297-.125c.117 0 .215.043.297.125a.41.41 0 0 1 .125.297v1.5a.404.404 0 0 1-.125.297.404.404 0 0 1-.297.125.404.404 0 0 1-.297-.125.404.404 0 0 1-.125-.297zm0-2.996v-1.5c0-.117.043-.215.125-.297a.39.39 0 0 1 .297-.125.39.39 0 0 1 .297.125c.082.082.125.18.125.297v1.5a.41.41 0 0 1-.125.297.404.404 0 0 1-.297.125.404.404 0 0 1-.297-.125.41.41 0 0 1-.125-.297zm0-3v-1.5a.41.41 0 0 1 .125-.297.404.404 0 0 1 .297-.125c.117 0 .215.043.297.125a.41.41 0 0 1 .125.297v1.5a.404.404 0 0 1-.125.297.39.39 0 0 1-.297.125.39.39 0 0 1-.297-.125.404.404 0 0 1-.125-.297zm0-2.996v-1.5c0-.117.043-.215.125-.297a.404.404 0 0 1 .297-.125c.117 0 .215.043.297.125.082.082.125.18.125.297v1.5a.41.41 0 0 1-.125.297.404.404 0 0 1-.297.125.404.404 0 0 1-.297-.125.41.41 0 0 1-.125-.297zm0-3v-1.496c0-.118.043-.22.125-.301a.4.4 0 0 1 .297-.121.4.4 0 0 1 .297.12.413.413 0 0 1 .125.302v1.496a.42.42 0 0 1-.422.422.42.42 0 0 1-.422-.422zm0 0" fill-opacity=".4"/><path d="M101.324 61.496l.008-.355.024-.348.035-.34.047-.332.062-.324.078-.32.086-.305.102-.3.117-.29.125-.281.14-.274.149-.261.164-.254.176-.242.183-.235.2-.222.207-.211.218-.2.23-.191.24-.176.25-.168.257-.156.27-.14.277-.133.289-.118.297-.105.304-.094.313-.082.324-.066.328-.051.34-.043.344-.024.355-.011 1.387-.004h62.113l.211-.008.211-.012.2-.027.199-.031.195-.04.187-.046.184-.059.176-.062.176-.07.164-.079.164-.086.152-.093.152-.102.141-.105.14-.114.13-.12.125-.13.117-.133.113-.136.106-.149.097-.148.09-.16.082-.164.078-.168.067-.172.062-.18.055-.187.043-.188.039-.195.027-.2.024-.206.011-.207.004-.215.004.215.016.207.02.207.03.199.036.195.047.188.05.187.063.18.07.172.074.168.082.164.094.16.098.148.101.149.114.136.117.133.125.13.133.12.136.114.145.105.148.102.157.093.16.086.168.078.172.07.18.063.183.059.187.047.192.039.199.031.203.027.207.012.211.008h62.117l1.387.004.352.011.347.024.336.043.332.05.32.067.317.082.305.094.297.105.285.118.277.132.27.141.261.156.25.168.239.176.226.191.219.2.21.21.196.223.188.235.171.242.165.254.152.261.137.274.129.281.113.29.101.3.09.305.074.32.063.324.05.332.036.34.02.348" fill="none" stroke-width=".8431537499999999" stroke-linecap="round" stroke-linejoin="round" stroke="#000"/><path d="M63.926 153.95v-1.5a.4.4 0 0 1 .12-.298.41.41 0 0 1 .298-.125c.117 0 .219.043.3.125a.4.4 0 0 1 .122.297v1.5a.4.4 0 0 1-.121.297.413.413 0 0 1-.301.125.41.41 0 0 1-.297-.125.4.4 0 0 1-.121-.297zm0-3v-1.497a.41.41 0 0 1 .12-.3.407.407 0 0 1 .298-.122.41.41 0 0 1 .3.121.41.41 0 0 1 .122.301v1.496a.41.41 0 0 1-.121.301.41.41 0 0 1-.301.121.407.407 0 0 1-.297-.121.41.41 0 0 1-.121-.3zm0-2.997v-1.5a.4.4 0 0 1 .12-.297.41.41 0 0 1 .298-.125c.117 0 .219.043.3.125a.4.4 0 0 1 .122.297v1.5a.4.4 0 0 1-.121.297.413.413 0 0 1-.301.125.41.41 0 0 1-.297-.125.4.4 0 0 1-.121-.297zm0-3v-1.496a.41.41 0 0 1 .12-.3.407.407 0 0 1 .298-.122.41.41 0 0 1 .3.121.41.41 0 0 1 .122.301v1.496a.41.41 0 0 1-.121.3.41.41 0 0 1-.301.122.407.407 0 0 1-.297-.121.41.41 0 0 1-.121-.3zm0-2.996v-1.5a.4.4 0 0 1 .12-.297.41.41 0 0 1 .298-.125c.117 0 .219.043.3.125a.4.4 0 0 1 .122.297v1.5a.4.4 0 0 1-.121.297.413.413 0 0 1-.301.125.41.41 0 0 1-.297-.125.4.4 0 0 1-.121-.297zm0-2.996v-1.5a.416.416 0 0 1 .418-.422.416.416 0 0 1 .422.422v1.5c0 .113-.04.215-.121.297a.41.41 0 0 1-.301.12.407.407 0 0 1-.297-.12.407.407 0 0 1-.121-.297zm0-3v-1.5c0-.113.039-.215.12-.297a.41.41 0 0 1 .298-.125c.117 0 .219.043.3.125a.407.407 0 0 1 .122.297v1.5a.4.4 0 0 1-.121.297.413.413 0 0 1-.301.125.41.41 0 0 1-.297-.125.4.4 0 0 1-.121-.297zm0-2.996v-1.5a.4.4 0 0 1 .12-.297.41.41 0 0 1 .298-.125c.117 0 .219.043.3.125a.4.4 0 0 1 .122.297v1.5c0 .113-.04.215-.121.297a.413.413 0 0 1-.301.125.41.41 0 0 1-.297-.125.407.407 0 0 1-.121-.297zm0-3v-1.5c0-.113.039-.215.12-.297a.407.407 0 0 1 .298-.121.41.41 0 0 1 .3.121.407.407 0 0 1 .122.297v1.5a.4.4 0 0 1-.121.297.398.398 0 0 1-.301.125.396.396 0 0 1-.297-.125.4.4 0 0 1-.121-.297zm0-2.996v-1.5a.4.4 0 0 1 .12-.297.41.41 0 0 1 .298-.125c.117 0 .219.043.3.125a.4.4 0 0 1 .122.297v1.5a.4.4 0 0 1-.121.297.413.413 0 0 1-.301.125.41.41 0 0 1-.297-.125.4.4 0 0 1-.121-.297zm0-3v-1.496a.41.41 0 0 1 .12-.301.407.407 0 0 1 .298-.121.41.41 0 0 1 .3.12.41.41 0 0 1 .122.302v1.496a.41.41 0 0 1-.121.3.41.41 0 0 1-.301.122.407.407 0 0 1-.297-.121.41.41 0 0 1-.121-.301zm0-2.996v-1.5a.4.4 0 0 1 .12-.297.41.41 0 0 1 .298-.125c.117 0 .219.043.3.125a.4.4 0 0 1 .122.297v1.5a.4.4 0 0 1-.121.297.413.413 0 0 1-.301.125.41.41 0 0 1-.297-.125.4.4 0 0 1-.121-.297zm0-3v-1.496a.41.41 0 0 1 .12-.301.407.407 0 0 1 .298-.121.41.41 0 0 1 .3.12.41.41 0 0 1 .122.302v1.496a.41.41 0 0 1-.121.3.41.41 0 0 1-.301.122.407.407 0 0 1-.297-.122.41.41 0 0 1-.121-.3zm0-2.996v-1.5a.4.4 0 0 1 .12-.297.41.41 0 0 1 .298-.125c.117 0 .219.043.3.125a.4.4 0 0 1 .122.297v1.5a.4.4 0 0 1-.121.296.413.413 0 0 1-.301.125.41.41 0 0 1-.297-.125.4.4 0 0 1-.121-.296zm0-3v-1.497a.416.416 0 0 1 .418-.421.416.416 0 0 1 .422.422v1.496a.41.41 0 0 1-.121.3.41.41 0 0 1-.301.121.407.407 0 0 1-.297-.12.41.41 0 0 1-.121-.301zm0-2.997v-1.5a.4.4 0 0 1 .12-.296.41.41 0 0 1 .298-.125c.117 0 .219.043.3.125a.4.4 0 0 1 .122.296v1.5a.4.4 0 0 1-.121.297.413.413 0 0 1-.301.125.41.41 0 0 1-.297-.125.4.4 0 0 1-.121-.297zm0-2.996v-1.5a.4.4 0 0 1 .12-.296.396.396 0 0 1 .298-.126c.117 0 .219.04.3.126a.4.4 0 0 1 .122.296v1.5c0 .114-.04.215-.121.297a.41.41 0 0 1-.301.121.407.407 0 0 1-.297-.12.407.407 0 0 1-.121-.298zm0-3v-1.5c0-.113.039-.214.12-.296a.41.41 0 0 1 .298-.126c.117 0 .219.043.3.126a.407.407 0 0 1 .122.296v1.5a.4.4 0 0 1-.121.297.413.413 0 0 1-.301.125.41.41 0 0 1-.297-.125.4.4 0 0 1-.121-.297zm0-2.996v-1.5a.4.4 0 0 1 .12-.297.41.41 0 0 1 .298-.125c.117 0 .219.043.3.125a.4.4 0 0 1 .122.297v1.5c0 .114-.04.215-.121.297a.413.413 0 0 1-.301.125.41.41 0 0 1-.297-.125.407.407 0 0 1-.121-.297zm0-3v-1.5c0-.113.039-.215.12-.297a.407.407 0 0 1 .298-.12.41.41 0 0 1 .3.12.407.407 0 0 1 .122.297v1.5a.416.416 0 0 1-.422.422.416.416 0 0 1-.418-.422zm0-2.996v-1.5a.4.4 0 0 1 .12-.297.41.41 0 0 1 .298-.125c.117 0 .219.043.3.125a.4.4 0 0 1 .122.297v1.5a.4.4 0 0 1-.121.297.413.413 0 0 1-.301.125.41.41 0 0 1-.297-.125.4.4 0 0 1-.121-.297zm0-3v-1.496a.41.41 0 0 1 .12-.3.407.407 0 0 1 .298-.122.41.41 0 0 1 .3.121.41.41 0 0 1 .122.301v1.496a.41.41 0 0 1-.121.301.41.41 0 0 1-.301.121.407.407 0 0 1-.297-.121.41.41 0 0 1-.121-.3zm0-2.996v-1.5a.4.4 0 0 1 .12-.297.41.41 0 0 1 .298-.125c.117 0 .219.043.3.125a.4.4 0 0 1 .122.297v1.5a.4.4 0 0 1-.121.297.413.413 0 0 1-.301.125.41.41 0 0 1-.297-.125.4.4 0 0 1-.121-.297zm0-3V83.5a.41.41 0 0 1 .12-.3.407.407 0 0 1 .298-.122.41.41 0 0 1 .3.121.41.41 0 0 1 .122.301v1.496a.41.41 0 0 1-.121.3.41.41 0 0 1-.301.122.407.407 0 0 1-.297-.121.41.41 0 0 1-.121-.3zm0-2.996v-1.5a.4.4 0 0 1 .12-.297.41.41 0 0 1 .298-.125c.117 0 .219.043.3.125a.4.4 0 0 1 .122.297V82a.4.4 0 0 1-.121.297.413.413 0 0 1-.301.125.41.41 0 0 1-.297-.125.4.4 0 0 1-.121-.297zm0-3v-1.496a.416.416 0 0 1 .418-.422.416.416 0 0 1 .422.422V79a.41.41 0 0 1-.121.3.41.41 0 0 1-.301.122.407.407 0 0 1-.297-.121.41.41 0 0 1-.121-.301zm0-2.996v-1.5c0-.113.039-.215.12-.297a.41.41 0 0 1 .298-.125c.117 0 .219.043.3.125a.407.407 0 0 1 .122.297v1.5a.4.4 0 0 1-.121.297.413.413 0 0 1-.301.125.41.41 0 0 1-.297-.125.4.4 0 0 1-.121-.297zm0-2.996v-1.5a.4.4 0 0 1 .12-.297.396.396 0 0 1 .298-.125c.117 0 .219.039.3.125a.4.4 0 0 1 .122.297v1.5c0 .113-.04.215-.121.297a.413.413 0 0 1-.301.125.41.41 0 0 1-.297-.125.407.407 0 0 1-.121-.297zm0-3v-1.5c0-.113.039-.215.12-.297a.41.41 0 0 1 .298-.125c.117 0 .219.043.3.125a.407.407 0 0 1 .122.297v1.5a.4.4 0 0 1-.121.297.398.398 0 0 1-.301.125.396.396 0 0 1-.297-.125.4.4 0 0 1-.121-.297zm0-2.996v-1.5a.4.4 0 0 1 .12-.297.41.41 0 0 1 .298-.125c.117 0 .219.043.3.125a.4.4 0 0 1 .122.297v1.5c0 .113-.04.215-.121.297a.413.413 0 0 1-.301.125.41.41 0 0 1-.297-.125.407.407 0 0 1-.121-.297zm0-3v-1.496a.41.41 0 0 1 .12-.301.407.407 0 0 1 .298-.121.41.41 0 0 1 .3.12.41.41 0 0 1 .122.302v1.496a.416.416 0 0 1-.422.422.416.416 0 0 1-.418-.422zm0-2.996v-1.5a.4.4 0 0 1 .12-.297.41.41 0 0 1 .298-.125c.117 0 .219.043.3.125a.4.4 0 0 1 .122.297v1.5a.4.4 0 0 1-.121.297.413.413 0 0 1-.301.124.41.41 0 0 1-.297-.124.4.4 0 0 1-.121-.297zm0-3V56.52a.41.41 0 0 1 .12-.301.407.407 0 0 1 .298-.121.41.41 0 0 1 .3.12.41.41 0 0 1 .122.302v1.496a.41.41 0 0 1-.121.3.41.41 0 0 1-.301.121.407.407 0 0 1-.297-.12.41.41 0 0 1-.121-.301zm0-2.996v-1.5a.4.4 0 0 1 .12-.297.41.41 0 0 1 .298-.125c.117 0 .219.043.3.125a.4.4 0 0 1 .122.297v1.5a.4.4 0 0 1-.121.296.413.413 0 0 1-.301.125.41.41 0 0 1-.297-.125.4.4 0 0 1-.121-.296zm0-3v-1.497a.41.41 0 0 1 .12-.3.407.407 0 0 1 .298-.121.41.41 0 0 1 .3.12.41.41 0 0 1 .122.301v1.497a.41.41 0 0 1-.121.3.41.41 0 0 1-.301.121.407.407 0 0 1-.297-.12.41.41 0 0 1-.121-.301zm0-2.997v-1.5a.4.4 0 0 1 .12-.296.41.41 0 0 1 .298-.125c.117 0 .219.043.3.125a.4.4 0 0 1 .122.296v1.5a.4.4 0 0 1-.121.297.413.413 0 0 1-.301.125.41.41 0 0 1-.297-.125.4.4 0 0 1-.121-.297zm0-2.996v-1.5a.416.416 0 0 1 .418-.422.416.416 0 0 1 .422.422v1.5c0 .114-.04.215-.121.297a.41.41 0 0 1-.301.121.407.407 0 0 1-.297-.12.407.407 0 0 1-.121-.298zm0-3v-1.5c0-.113.039-.215.12-.297a.41.41 0 0 1 .298-.125c.117 0 .219.043.3.125a.407.407 0 0 1 .122.297v1.5a.4.4 0 0 1-.121.297.413.413 0 0 1-.301.125.41.41 0 0 1-.297-.125.4.4 0 0 1-.121-.297zm0-2.996v-1.5a.4.4 0 0 1 .12-.297.41.41 0 0 1 .298-.125c.117 0 .219.043.3.125a.4.4 0 0 1 .122.297v1.5c0 .114-.04.215-.121.297a.413.413 0 0 1-.301.125.41.41 0 0 1-.297-.125.407.407 0 0 1-.121-.297zm0-3v-1.418a.41.41 0 0 1 .12-.3.407.407 0 0 1 .298-.122.41.41 0 0 1 .3.121.41.41 0 0 1 .122.301v1.418a.4.4 0 0 1-.121.297.398.398 0 0 1-.301.125.396.396 0 0 1-.297-.125.4.4 0 0 1-.121-.297zm0 0M285.805 153.95v-1.5c0-.118.043-.216.125-.298a.404.404 0 0 1 .297-.125c.117 0 .214.043.296.125.082.082.125.18.125.297v1.5a.404.404 0 0 1-.125.297.404.404 0 0 1-.296.125.404.404 0 0 1-.297-.125.404.404 0 0 1-.125-.297zm0-3v-1.497c0-.117.043-.219.125-.3a.4.4 0 0 1 .297-.122.4.4 0 0 1 .296.121.413.413 0 0 1 .125.301v1.496a.413.413 0 0 1-.125.301.4.4 0 0 1-.296.121.4.4 0 0 1-.297-.121.413.413 0 0 1-.125-.3zm0-2.997v-1.5c0-.117.043-.215.125-.297a.404.404 0 0 1 .297-.125c.117 0 .214.043.296.125.082.082.125.18.125.297v1.5a.404.404 0 0 1-.125.297.404.404 0 0 1-.296.125.404.404 0 0 1-.297-.125.404.404 0 0 1-.125-.297zm0-3v-1.496c0-.117.043-.219.125-.3a.4.4 0 0 1 .297-.122.4.4 0 0 1 .296.121.413.413 0 0 1 .125.301v1.496a.413.413 0 0 1-.125.3.4.4 0 0 1-.296.122.4.4 0 0 1-.297-.121.413.413 0 0 1-.125-.3zm0-2.996v-1.5c0-.117.043-.215.125-.297a.404.404 0 0 1 .297-.125c.117 0 .214.043.296.125.082.082.125.18.125.297v1.5a.404.404 0 0 1-.125.297.404.404 0 0 1-.296.125.404.404 0 0 1-.297-.125.404.404 0 0 1-.125-.297zm0-2.996v-1.5a.42.42 0 0 1 .422-.422.42.42 0 0 1 .422.422v1.5a.41.41 0 0 1-.126.297.4.4 0 0 1-.296.12.4.4 0 0 1-.297-.12.41.41 0 0 1-.125-.297zm0-3v-1.5a.41.41 0 0 1 .125-.297.404.404 0 0 1 .297-.125c.117 0 .214.043.296.125a.41.41 0 0 1 .125.297v1.5a.404.404 0 0 1-.125.297.404.404 0 0 1-.296.125.404.404 0 0 1-.297-.125.404.404 0 0 1-.125-.297zm0-2.996v-1.5c0-.117.043-.215.125-.297a.404.404 0 0 1 .297-.125c.117 0 .214.043.296.125.082.082.125.18.125.297v1.5a.41.41 0 0 1-.125.297.404.404 0 0 1-.296.125.404.404 0 0 1-.297-.125.41.41 0 0 1-.125-.297zm0-3v-1.5a.41.41 0 0 1 .125-.297.4.4 0 0 1 .297-.121.4.4 0 0 1 .296.121.41.41 0 0 1 .125.297v1.5a.404.404 0 0 1-.125.297.39.39 0 0 1-.296.125.39.39 0 0 1-.297-.125.404.404 0 0 1-.125-.297zm0-2.996v-1.5c0-.117.043-.215.125-.297a.404.404 0 0 1 .297-.125c.117 0 .214.043.296.125.082.082.125.18.125.297v1.5a.404.404 0 0 1-.125.297.404.404 0 0 1-.296.125.404.404 0 0 1-.297-.125.404.404 0 0 1-.125-.297zm0-3v-1.496c0-.118.043-.22.125-.301a.4.4 0 0 1 .297-.121.4.4 0 0 1 .296.12.413.413 0 0 1 .125.302v1.496a.413.413 0 0 1-.125.3.4.4 0 0 1-.296.122.4.4 0 0 1-.297-.121.413.413 0 0 1-.125-.301zm0-2.996v-1.5c0-.118.043-.215.125-.297a.404.404 0 0 1 .297-.125c.117 0 .214.043.296.125.082.082.125.18.125.297v1.5a.404.404 0 0 1-.125.297.404.404 0 0 1-.296.125.404.404 0 0 1-.297-.125.404.404 0 0 1-.125-.297zm0-3v-1.496c0-.118.043-.22.125-.301a.4.4 0 0 1 .297-.121.4.4 0 0 1 .296.12.413.413 0 0 1 .125.302v1.496a.413.413 0 0 1-.125.3.4.4 0 0 1-.296.122.4.4 0 0 1-.297-.122.413.413 0 0 1-.125-.3zm0-2.996v-1.5c0-.118.043-.215.125-.297a.404.404 0 0 1 .297-.125c.117 0 .214.043.296.125.082.082.125.18.125.297v1.5a.404.404 0 0 1-.125.296.404.404 0 0 1-.296.125.404.404 0 0 1-.297-.125.404.404 0 0 1-.125-.296zm0-3v-1.497a.42.42 0 0 1 .422-.421.42.42 0 0 1 .422.422v1.496a.413.413 0 0 1-.126.3.4.4 0 0 1-.296.121.4.4 0 0 1-.297-.12.413.413 0 0 1-.125-.301zm0-2.997v-1.5c0-.117.043-.214.125-.296a.404.404 0 0 1 .297-.125c.117 0 .214.043.296.125.082.082.125.18.125.296v1.5a.404.404 0 0 1-.125.297.404.404 0 0 1-.296.125.404.404 0 0 1-.297-.125.404.404 0 0 1-.125-.297zm0-2.996v-1.5c0-.117.043-.214.125-.296a.39.39 0 0 1 .297-.126.39.39 0 0 1 .296.126c.082.082.125.18.125.296v1.5a.41.41 0 0 1-.125.297.4.4 0 0 1-.296.121.4.4 0 0 1-.297-.12.41.41 0 0 1-.125-.298zm0-3v-1.5a.41.41 0 0 1 .125-.296.404.404 0 0 1 .297-.126c.117 0 .214.043.296.126a.41.41 0 0 1 .125.296v1.5a.404.404 0 0 1-.125.297.404.404 0 0 1-.296.125.404.404 0 0 1-.297-.125.404.404 0 0 1-.125-.297zm0-2.996v-1.5c0-.117.043-.215.125-.297a.404.404 0 0 1 .297-.125c.117 0 .214.043.296.125.082.082.125.18.125.297v1.5a.41.41 0 0 1-.125.297.404.404 0 0 1-.296.125.404.404 0 0 1-.297-.125.41.41 0 0 1-.125-.297zm0-3v-1.5a.41.41 0 0 1 .125-.297.4.4 0 0 1 .297-.12.4.4 0 0 1 .296.12.41.41 0 0 1 .125.297v1.5a.42.42 0 0 1-.421.422.42.42 0 0 1-.422-.422zm0-2.996v-1.5c0-.117.043-.215.125-.297a.404.404 0 0 1 .297-.125c.117 0 .214.043.296.125.082.082.125.18.125.297v1.5a.404.404 0 0 1-.125.297.404.404 0 0 1-.296.125.404.404 0 0 1-.297-.125.404.404 0 0 1-.125-.297zm0-3v-1.496c0-.117.043-.219.125-.3a.4.4 0 0 1 .297-.122.4.4 0 0 1 .296.121.413.413 0 0 1 .125.301v1.496a.413.413 0 0 1-.125.301.4.4 0 0 1-.296.121.4.4 0 0 1-.297-.121.413.413 0 0 1-.125-.3zm0-2.996v-1.5c0-.117.043-.215.125-.297a.404.404 0 0 1 .297-.125c.117 0 .214.043.296.125.082.082.125.18.125.297v1.5a.404.404 0 0 1-.125.297.404.404 0 0 1-.296.125.404.404 0 0 1-.297-.125.404.404 0 0 1-.125-.297zm0-3V83.5c0-.117.043-.219.125-.3a.4.4 0 0 1 .297-.122.4.4 0 0 1 .296.121.413.413 0 0 1 .125.301v1.496a.413.413 0 0 1-.125.3.4.4 0 0 1-.296.122.4.4 0 0 1-.297-.121.413.413 0 0 1-.125-.3zm0-2.996v-1.5c0-.117.043-.215.125-.297a.404.404 0 0 1 .297-.125c.117 0 .214.043.296.125.082.082.125.18.125.297V82a.404.404 0 0 1-.125.297.404.404 0 0 1-.296.125.404.404 0 0 1-.297-.125.404.404 0 0 1-.125-.297zm0-3v-1.496a.42.42 0 0 1 .422-.422.42.42 0 0 1 .422.422V79a.413.413 0 0 1-.126.3.4.4 0 0 1-.296.122.4.4 0 0 1-.297-.121.413.413 0 0 1-.125-.301zm0-2.996v-1.5a.41.41 0 0 1 .125-.297.404.404 0 0 1 .297-.125c.117 0 .214.043.296.125a.41.41 0 0 1 .125.297v1.5a.404.404 0 0 1-.125.297.404.404 0 0 1-.296.125.404.404 0 0 1-.297-.125.404.404 0 0 1-.125-.297zm0-2.996v-1.5c0-.117.043-.215.125-.297a.39.39 0 0 1 .297-.125.39.39 0 0 1 .296.125c.082.082.125.18.125.297v1.5a.41.41 0 0 1-.125.297.404.404 0 0 1-.296.125.404.404 0 0 1-.297-.125.41.41 0 0 1-.125-.297zm0-3v-1.5a.41.41 0 0 1 .125-.297.404.404 0 0 1 .297-.125c.117 0 .214.043.296.125a.41.41 0 0 1 .125.297v1.5a.404.404 0 0 1-.125.297.39.39 0 0 1-.296.125.39.39 0 0 1-.297-.125.404.404 0 0 1-.125-.297zm0-2.996v-1.5c0-.117.043-.215.125-.297a.404.404 0 0 1 .297-.125c.117 0 .214.043.296.125.082.082.125.18.125.297v1.5a.41.41 0 0 1-.125.297.404.404 0 0 1-.296.125.404.404 0 0 1-.297-.125.41.41 0 0 1-.125-.297zm0-3v-1.496c0-.118.043-.22.125-.301a.4.4 0 0 1 .297-.121.4.4 0 0 1 .296.12.413.413 0 0 1 .125.302v1.496a.42.42 0 0 1-.421.422.42.42 0 0 1-.422-.422zm0-2.996v-1.5c0-.118.043-.215.125-.297a.404.404 0 0 1 .297-.125c.117 0 .214.043.296.125.082.082.125.18.125.297v1.5a.404.404 0 0 1-.125.297.404.404 0 0 1-.296.124.404.404 0 0 1-.297-.124.404.404 0 0 1-.125-.297zm0-3V56.52c0-.118.043-.22.125-.301a.4.4 0 0 1 .297-.121.4.4 0 0 1 .296.12.413.413 0 0 1 .125.302v1.496a.413.413 0 0 1-.125.3.4.4 0 0 1-.296.121.4.4 0 0 1-.297-.12.413.413 0 0 1-.125-.301zm0-2.996v-1.5c0-.118.043-.215.125-.297a.404.404 0 0 1 .297-.125c.117 0 .214.043.296.125.082.082.125.18.125.297v1.5a.404.404 0 0 1-.125.296.404.404 0 0 1-.296.125.404.404 0 0 1-.297-.125.404.404 0 0 1-.125-.296zm0-3v-1.497c0-.117.043-.218.125-.3a.4.4 0 0 1 .297-.121.4.4 0 0 1 .296.12.413.413 0 0 1 .125.301v1.497a.413.413 0 0 1-.125.3.4.4 0 0 1-.296.121.4.4 0 0 1-.297-.12.413.413 0 0 1-.125-.301zm0-2.997v-1.5c0-.117.043-.214.125-.296a.404.404 0 0 1 .297-.125c.117 0 .214.043.296.125.082.082.125.18.125.296v1.5a.404.404 0 0 1-.125.297.404.404 0 0 1-.296.125.404.404 0 0 1-.297-.125.404.404 0 0 1-.125-.297zm0-2.996v-1.5a.42.42 0 0 1 .422-.422.42.42 0 0 1 .422.422v1.5a.41.41 0 0 1-.126.297.4.4 0 0 1-.296.121.4.4 0 0 1-.297-.12.41.41 0 0 1-.125-.298zm0-3v-1.5a.41.41 0 0 1 .125-.297.404.404 0 0 1 .297-.125c.117 0 .214.043.296.125a.41.41 0 0 1 .125.297v1.5a.404.404 0 0 1-.125.297.404.404 0 0 1-.296.125.404.404 0 0 1-.297-.125.404.404 0 0 1-.125-.297zm0-2.996v-1.5c0-.117.043-.215.125-.297a.404.404 0 0 1 .297-.125c.117 0 .214.043.296.125.082.082.125.18.125.297v1.5a.41.41 0 0 1-.125.297.404.404 0 0 1-.296.125.404.404 0 0 1-.297-.125.41.41 0 0 1-.125-.297zm0-3v-1.418c0-.117.043-.218.125-.3a.4.4 0 0 1 .297-.122.4.4 0 0 1 .296.121.413.413 0 0 1 .125.301v1.418a.404.404 0 0 1-.125.297.39.39 0 0 1-.296.125.39.39 0 0 1-.297-.125.404.404 0 0 1-.125-.297zm0 0" fill-opacity=".4"/><path d="M64.344 35.613l.008-.355.023-.352.035-.34.047-.332.063-.324.078-.316.086-.309.105-.3.113-.29.125-.28.141-.274.152-.262.16-.254.176-.242.184-.235.2-.218.206-.215.219-.2.23-.187.239-.18.25-.168.257-.152.27-.144.277-.133.29-.117.296-.106.305-.094.312-.078.325-.07.328-.05.34-.04.343-.027.356-.012h98.402l2.078-.004.211-.004.211-.015.2-.024.199-.035.195-.039.187-.047.184-.059.176-.062.176-.07.164-.078.164-.086.152-.094.152-.102.141-.105.14-.113.13-.122.125-.125.117-.136.113-.137.106-.148.097-.149.09-.16.082-.16.078-.172.067-.172.062-.18.055-.187.043-.188.039-.195.027-.2.024-.206.011-.207.004-.215.004.215.016.207.02.207.03.2.036.194.047.188.05.187.063.18.07.172.074.172.082.16.094.16.098.149.101.148.114.137.117.136.125.125.133.122.136.113.145.105.148.102.157.094.16.086.168.078.172.07.18.062.183.06.187.046.192.039.199.035.203.024.207.015.211.004 2.078.004h98.403l.355.012.348.027.336.04.332.05.32.07.313.078.308.094.297.106.285.117.278.133.269.144.262.152.246.168.242.18.227.188.218.199.211.215.196.218.187.235.172.242.164.254.152.262.137.273.129.281.113.29.102.3.09.309.074.316.062.324.051.332.035.34.02.352" fill="none" stroke-width=".8431537499999999" stroke-linecap="round" stroke-linejoin="round" stroke="#000"/><g clip-path="url(#b)"><path d="M8.992 153.64h332.766" fill="none" stroke-width=".8431537499999999" stroke="#000"/></g><path d="M64.453 157.387v-4.496M101.176 157.387v-15.738M138.652 157.387V97.43M212.098 157.387V97.43M249.57 157.387v-15.738M286.297 157.387v-4.496" fill="none" stroke-width=".374735" stroke="#8c001a" stroke-opacity=".8"/><path d="M140.758 124.41h69.234" fill="none" stroke-width=".8431537499999999" stroke="#000"/><g clip-path="url(#c)"><path d="M142.91 122.305l-4.219 2.105 4.22 2.11-2.11-2.11zm0 0"/></g><g clip-path="url(#d)"><path d="M207.84 122.305l4.215 2.105-4.215 2.11 2.11-2.11zm0 0"/></g><use xlink:href="#e" x="158.886" y="119.952"/><use xlink:href="#f" x="164.882" y="119.952"/><use xlink:href="#g" x="170.878" y="119.952"/><use xlink:href="#h" x="173.876" y="119.952"/><use xlink:href="#i" x="179.872" y="119.952"/><use xlink:href="#j" x="50.214" y="166.531"/><use xlink:href="#k" x="58.306" y="166.531"/><use xlink:href="#l" x="67.92" y="166.531"/><use xlink:href="#m" x="72.417" y="166.531"/><use xlink:href="#j" x="86.938" y="166.531"/><use xlink:href="#k" x="95.03" y="166.531"/><use xlink:href="#n" x="104.644" y="166.531"/><use xlink:href="#m" x="109.141" y="166.531"/><use xlink:href="#j" x="126.66" y="166.531"/><use xlink:href="#k" x="134.751" y="166.531"/><use xlink:href="#m" x="144.366" y="166.531"/><use xlink:href="#j" x="171.627" y="165.819"/><use xlink:href="#j" x="200.107" y="166.531"/><use xlink:href="#o" x="208.199" y="166.531"/><use xlink:href="#m" x="218.563" y="166.531"/><use xlink:href="#j" x="234.582" y="166.531"/><use xlink:href="#o" x="242.674" y="166.531"/><use xlink:href="#n" x="253.038" y="166.531"/><use xlink:href="#m" x="257.535" y="166.531"/><use xlink:href="#j" x="271.306" y="166.531"/><use xlink:href="#o" x="279.398" y="166.531"/><use xlink:href="#l" x="289.762" y="166.531"/><use xlink:href="#m" x="294.259" y="166.531"/><use xlink:href="#p" x="157.388" y="46.467"/><use xlink:href="#q" x="164.133" y="46.467"/><use xlink:href="#r" x="170.878" y="46.467"/><use xlink:href="#s" x="173.876" y="46.467"/><use xlink:href="#t" x="180.621" y="46.467"/><use xlink:href="#p" x="157.388" y="20.236"/><use xlink:href="#p" x="164.133" y="20.236"/><use xlink:href="#r" x="170.878" y="20.236"/><use xlink:href="#u" x="173.876" y="20.236"/><use xlink:href="#t" x="180.621" y="20.236"/></svg>